<svg width="150" height="150" fill="none" xmlns="http://www.w3.org/2000/svg"><rect width="150" height="150" rx="25" fill="#DA2032"/><path d="M67.677 73.213h-2.465l2.4-6.867 6.886 11.334 6.885-11.335 2.403 6.868H81.32v4.155h16.465v-4.154h-3.198L83.681 45.658l-9.183 16.096-9.183-16.096L54.41 73.213h-3.193v4.155h16.46v-4.154z" fill="#fff"/><path d="M117.999 65.5c0-24.025-19.474-43.5-43.5-43.5C50.479 22 31 41.475 31 65.5a43.37 43.37 0 0 0 12.704 30.716 3.544 3.544 0 0 0 2.537 1.058 3.536 3.536 0 0 0 3.533-3.533c0-.99-.422-1.896-1.08-2.56A36.278 36.278 0 0 1 38.07 65.5c0-20.084 16.34-36.43 36.429-36.43 20.088 0 36.432 16.346 36.432 36.43 0 10.047-4.089 19.155-10.688 25.749L69.48 122.013l5.013 5.014 30.786-30.784C113.14 88.369 118 77.504 118 65.499" fill="#fff"/></svg>