<svg width="176" height="176" xmlns="http://www.w3.org/2000/svg" fill-rule="evenodd" clip-rule="evenodd" stroke-linejoin="round" stroke-miterlimit="2">
<path d="M54.2 72.647c0-10.175 8.279-18.459 18.458-18.459 10.175 0 18.454 8.284 18.454 18.459 0 10.183-8.28 18.47-18.454 18.47-10.18 0-18.459-8.287-18.459-18.47m48.726 0c0-16.688-13.584-30.263-30.267-30.263-16.688 0-30.263 13.575-30.263 30.263 0 16.687 13.575 30.275 30.263 30.275 16.683 0 30.267-13.588 30.267-30.275m-71.563 47.17c0-1.658-.713-3.17-1.808-4.274A60.58 60.58 0 0 1 11.812 72.65c0-33.546 27.3-60.846 60.838-60.846 33.554 0 60.85 27.3 60.85 60.846 0 16.78-6.825 31.992-17.846 43.012L64.27 167.04l8.375 8.375 51.413-51.421c13.13-13.15 21.25-31.296 21.25-51.342 0-40.125-32.521-72.65-72.658-72.65C32.533 0 0 32.526 0 72.65c0 20.03 8.145 38.22 21.216 51.304 1.121 1.113 2.583 1.763 4.238 1.763a5.907 5.907 0 0 0 5.908-5.9m77.73-10.863c9.278-9.317 15.02-22.15 15.02-36.304 0-28.375-23.083-51.458-51.458-51.458-28.367 0-51.459 23.083-51.459 51.458 0 14.154 5.85 27.112 15.03 36.304 1.083 1.08 2.579 1.788 4.237 1.788a5.912 5.912 0 0 0 5.908-5.909c0-1.691-.72-3.2-1.846-4.275-7.116-7.175-11.516-17.037-11.516-27.908 0-21.863 17.783-39.654 39.646-39.654 21.866 0 39.662 17.791 39.662 39.654 0 10.93-4.454 20.837-11.629 28.017l-51.4 51.396 8.354 8.341 51.45-51.45z" fill="rgb(218,32,49)" fill-rule="nonzero"/>
</svg>